<?xml version="1.0" encoding="utf-8"?>
<!-- Generator: Adobe Illustrator 16.0.0, SVG Export Plug-In . SVG Version: 6.00 Build 0)  -->
<!DOCTYPE svg PUBLIC "-//W3C//DTD SVG 1.1//EN" "http://www.w3.org/Graphics/SVG/1.1/DTD/svg11.dtd">
<svg version="1.1" id="Layer_1" xmlns="http://www.w3.org/2000/svg" xmlns:xlink="http://www.w3.org/1999/xlink" x="0px" y="0px"
	 width="1400px" height="1646.925px" viewBox="0 94.575 1400 1646.925" enable-background="new 0 94.575 1400 1646.925"
	 xml:space="preserve">
<g>
	<rect x="-27.579" y="94.575" fill="#9CDFFF" width="1455.157" height="2102.429"/>
	<path fill="#ACE4FF" d="M680.609,1416.164c-56.254-204.466-117.203-52.434-117.203-52.434
		c-53.301-57.026-98.836,15.651-98.836,15.651c-8.906-35.033-22.161-12.751-22.161-12.751
		c-11.632-25.908-22.032-12.094-22.032-12.094c-11.325-43.832-33.484-35.071-33.484-35.071c-15.718-83.199-47.981-83.34-47.79-82.34
		c3.999-18.95-5.949-23.896-5.949-23.896c13.311-63.052-15.427-71.237-15.427-71.237
		c-9.884-253.226-119.215-246.737-119.215-246.737c-7.254-73.259-37.78-40.036-37.78-40.036
		c-6.165-48.018-23.991-24.333-23.991-24.333c-15.925-189.162-75.987-88.182-75.987-88.182
		C37.216,671.902,7.452,730.63,7.452,730.63c-11.435-44.998-23.792-64.235-35.031-70.248v441.78l203.5,1036.996l637.756-517.463
		C784.803,1406.443,680.609,1416.164,680.609,1416.164z"/>
	<path fill="#CAEEFF" d="M371.058,504.334c104.727-46.891,787.247-306.874,1056.521-409.164v-0.596h-144.561l-1141.32,418.34
		c0,0-191.899,58.954-55.115,113.758c136.784,54.806,700.599,110.644,267.19,265.1C134.198,970.027,25.869,1008.631-27.579,1027.68
		v17.923l8.949-0.109c0,0,825.542-116.384,825.542-322.336c0-81.523-256.383-108.7-457.333-135.873
		C275.433,587.286,240.093,562.973,371.058,504.334z"/>
	<path fill="#CAEFFC" d="M330.014,1362.205c21.174-230.528-87.349-216.416-87.349-216.416c0-36.471-20.788-21.453-20.788-21.453
		c-31.702-189.863-115.374-113.703-115.374-113.703c0-60.068-33.261-34.326-33.261-34.326
		C50.391,844.233-1.492,855.051-27.579,870.25v615.312c105.799,13.617,433.37,51.894,485.941,11.161
		C521.219,1448.023,330.014,1362.205,330.014,1362.205z"/>
	<path fill="#CAEEFF" d="M1427.578,215.572c-107.621-23.284-141.357,180.423-141.357,180.423
		c-112.775,33.253-66.521,205.953-66.521,205.953c-45.215,81.523-29.104,195.582-29.104,195.582
		c-19.055,4.291-13.859,37.904-13.859,37.904c-15.938,12.872-13.512,37.899-13.512,37.899c-23.906,5.72-28.064,51.488-28.064,51.488
		c-43.264-0.242-55.131,61.679-54.611,61.679c-7.08-14.615-12.949,2.68-12.949,2.68c-23.561-48.627-37.766,3.575-37.766,3.575
		C912.037,919.1,874.965,1131.49,874.965,1131.49c-35.688-12.872-31.875,57.923-31.875,57.923
		c-23.906-5.722-19.748,37.186-19.748,37.186c-91.121-38.614-67.561,113.703-67.561,113.703
		c-40.537,19.308-24.945,97.972-24.945,97.972c-69.987,15.734-47.813,122.999-47.813,122.999l6.583,84.382l737.972-15.682V215.572z"
		/>
	<path fill="#AEE5FF" d="M1427.578,585.456c-29.486,5.02-25.639,74.059-25.639,74.059
		c-156.604,22.882-180.508,296.769-180.508,296.769c-78.303-42.189-84.191,86.53-84.191,86.53
		c-133.563,0-144.133,196.655-144.133,196.655c-73.449-13.589-68.285,99.334-68.285,99.334c-23.246,0-22.473,46.383-22.473,46.383
		c-95.1-12.873-109.133,186.636-109.133,186.636l-7.799,106.186h642.16V585.456z"/>
	<path fill="#FFFFFB" d="M509.427,1366.331l304.618-54.346l-66.148,3.336c0,0-16.824-22.349-35.803-5.688
		c0,0-24.004-19.118-50.978,3.56c0,0-18.037-3.962-31.076,19.11c0,0-10.598-4.604-17.026,6.767c0,0-20.966-16.938-35.536,4.554
		c0,0-12.34-9.976-16.839,6.559c0,0-6.723-5.931-10.35,2.969L509.427,1366.331z"/>
	<path fill="#FFFFFB" d="M359.856,560.113l890.763-302.493l-194.367,40.762c0,0-51.971-57.924-106.02,0
		c0,0-72.758-45.052-149.672,34.326c0,0-53.529-3.218-89.389,70.796c0,0-31.702-8.581-49.371,27.89
		c0,0-63.577-40.047-104.113,30.035c0,0-37.418-23.598-48.852,27.175c0,0-20.442-14.303-30.143,13.586L359.856,560.113z"/>
	<path fill="#FFFFFB" d="M70.255,1067.536l304.623-54.343l-66.154,3.33c0,0-16.821-22.35-35.802-5.689
		c0,0-24.002-19.119-50.977,3.561c0,0-18.037-3.96-31.078,19.109c0,0-10.596-4.6-17.024,6.771c0,0-20.965-16.939-35.536,4.556
		c0,0-12.34-9.979-16.839,6.552c0,0-6.724-5.925-10.351,2.971L70.255,1067.536z"/>
	<path fill="#FFFFFB" d="M139.947,396.828l304.623-54.342l-66.152,3.33c0,0-16.823-22.35-35.803-5.688
		c0,0-24.002-19.119-50.977,3.559c0,0-18.037-3.961-31.078,19.109c0,0-10.597-4.597-17.024,6.772c0,0-20.964-16.941-35.536,4.553
		c0,0-12.339-9.979-16.839,6.554c0,0-6.724-5.927-10.351,2.971L139.947,396.828z"/>
	<path fill="#FFFFFB" d="M-0.153,354.823l304.622-54.342l-66.152,3.332c0,0-16.822-22.35-35.802-5.689
		c0,0-24.003-19.119-50.978,3.559c0,0-18.037-3.961-31.078,19.108c0,0-10.597-4.597-17.024,6.772c0,0-20.964-16.939-35.536,4.553
		c0,0-12.34-9.977-16.839,6.555c0,0-6.724-5.927-10.351,2.971L-0.153,354.823z"/>
	<g>
		<path fill="#FFA585" d="M653.528,768.211c-34.174,48.922-115.373,133.01-115.373,133.01l-99.676,157.881l-83.198,151.514
			l-214.168,144.136h-16.198l-15.478,15.599l-19.077-9.659l-126.993,96.389v677.01h1138.804V923.446L740.426,693.528
			C740.426,693.528,667.921,747.606,653.528,768.211z"/>
		<path fill="#E86F58" d="M676.354,897.098L569.81,1108.09l-113.024,46.063l-142.538,193.163c0,0-40.314,32.692-71.99,32.692
			c-31.675,0-75.662,23.213-75.662,23.213l-203.228,134.543v596.324h1138.804V923.446l-238.93-151.857L676.354,897.098z"/>
		<path fill="#FFA585" d="M498.542,1339.888L492.781,1328c0,0-64.07,96.584-67.668,89.157c-3.601-7.43-77.029,20.8-77.029,20.8
			l-166.296,87.666l73.429-105.497l-291.849,166.068v57.098l464.624-41.889l74.148-102.527l-30.953,106.982l20.156,16.345
			l185.014-286.772l-40.315,160.477l127.422-248.146h-69.831l71.271-114.41l-76.31-10.402l121.661-215.453L498.542,1339.888z"/>
		<polygon fill="#843628" points="896.643,816.859 918.957,843.605 833.291,834.69 859.928,922.357 851.289,959.504 
			829.693,959.504 774.26,1045.684 808.814,1057.57 791.178,1093.975 907.441,1067.973 943.436,1170.498 894.482,1256.676 
			850.568,1411.21 824.145,1422.481 739.705,1638.552 1102.172,1787.551 1102.172,923.446 934.469,816.859 		"/>
		<polygon fill="#FFA585" points="440.229,1204.673 463.626,1188.33 484.502,1183.127 480.003,1192.415 520.498,1192.415 
			570.17,1152.667 460.386,1169.755 		"/>
		<polygon fill="#FFA585" points="596.806,1087.291 657.637,1032.313 650.618,1017.823 699.03,924.586 682.473,932.016 
			684.273,914.186 619.123,1032.313 622.542,1039.373 		"/>
		<polygon fill="#CC5E4A" points="498.533,1511.349 715.852,1126.665 502.141,1498.878 		"/>
		<polygon fill="#CC5E4A" points="305.608,1599.916 418.631,1448.356 366.8,1536.026 376.158,1536.026 340.876,1588.252 		"/>
		<path fill="#FFA585" d="M1070.326,810.4c0,0-56.127,42.906-72.758,37.186c-16.631-5.723-85.922,65.791-85.922,65.791
			L744.65,1145.073l-45.042,163.045l-206.147,138.734H477.87l-14.898,15.017l-18.363-9.296l-161.106,122.283l-70.679-19.308
			L62.111,1664.962l-41.448,34.488l-57.295,25.421v472.133h1455.157V1031.705L1070.326,810.4z"/>
		<path fill="#E86F58" d="M1008.656,1006.343l-102.555,203.091l-108.789,44.338L660.111,1439.7c0,0-38.804,31.466-69.293,31.466
			s-72.827,22.343-72.827,22.343L270.105,1657.62c-36.121-9.322-210.36,119.684-306.737,191.597v347.787h1455.157V1031.705
			l-229.982-146.17L1008.656,1006.343z"/>
		<path fill="#FFA585" d="M207.603,1734.938l395.688-225.155l-70.679,101.547l160.068-84.384c0,0,70.678-27.174,74.143-20.024
			c3.465,7.152,65.137-85.813,65.137-85.813l5.545,11.444l300.039-416.197l-117.105,207.384l73.449,10.012l-68.6,110.126h67.213
			l-122.648,238.849l38.805-154.464L830.572,1704.29l-19.4-15.73l29.795-102.976l-71.371,98.687L207.603,1734.938z"/>
		<polygon fill="#843628" points="1220.693,929.111 1242.174,954.854 1159.715,946.273 1185.354,1030.655 1177.039,1066.413 
			1156.252,1066.413 1102.895,1149.365 1136.156,1160.806 1119.178,1195.847 1231.088,1170.82 1265.732,1269.506 1218.615,1352.457 
			1176.346,1501.202 1150.912,1512.048 1069.635,1720.026 1418.525,1863.446 1418.525,1031.705 1257.104,929.111 		"/>
		<polygon fill="#FFA585" points="781.373,1302.398 803.895,1286.667 823.988,1281.66 819.658,1290.6 858.637,1290.6 
			906.449,1252.341 800.777,1268.787 		"/>
		<polygon fill="#FFA585" points="932.086,1189.412 990.641,1136.493 983.883,1122.549 1030.482,1032.802 1014.547,1039.953 
			1016.277,1022.791 953.566,1136.493 956.859,1143.288 		"/>
		<polygon fill="#CC5E4A" points="837.494,1597.585 1046.672,1227.311 840.967,1585.584 		"/>
		<polygon fill="#CC5E4A" points="948.232,1806.849 1230.74,1188.281 952.473,1787.88 		"/>
		<polygon fill="#843628" points="1212.15,1169.926 1007.492,1550.799 1205.941,1175.498 		"/>
		<polygon fill="#CC5E4A" points="651.795,1682.837 760.586,1536.954 710.695,1621.339 719.705,1621.339 685.743,1671.612 		"/>
		<polygon fill="#CC5E4A" points="172.287,1611.327 239.848,1598.456 312.606,1504.06 346.906,1493.335 321.96,1523.369 
			245.045,1628.489 108.884,1710.013 172.287,1641.362 		"/>
	</g>
	<path fill="#843628" d="M709.053,1886.11l102.303-107.035c0,0,13.734-18.843,4.809,8.42
		c-8.928,27.258-29.066,109.039-29.066,109.039l128.168-137.903c0,0,27.465-37.681,10.986,7.217
		c-16.48,44.896-36.619,105.026-36.619,105.026s3.66,40.092,44.859-32.067c41.195-72.159,205.75-294.242,205.75-294.242
		l-190.186,221.283l56.986-133.494l-166.16,163.558l35.703-111.844L709.053,1886.11z"/>
	<path fill="#843628" d="M1086.852,1532.51c0,0,65.256-20.446-34.375,197.233C1052.475,1729.74,1203.385,1432.689,1086.852,1532.51z
		"/>
	<path fill="#843628" d="M1159.178,1427.347c0,0,36.783-11.522-19.377,111.17C1139.803,1538.52,1224.863,1371.084,1159.178,1427.347
		z"/>
	<ellipse fill="#FFFFFB" cx="209.136" cy="340.697" rx="44.435" ry="43.573"/>
</g>
</svg>
