<?xml version="1.0" encoding="utf-8"?>
<!-- Generator: Adobe Illustrator 16.0.0, SVG Export Plug-In . SVG Version: 6.00 Build 0)  -->
<!DOCTYPE svg PUBLIC "-//W3C//DTD SVG 1.1//EN" "http://www.w3.org/Graphics/SVG/1.1/DTD/svg11.dtd">
<svg version="1.1" id="Layer_1" xmlns="http://www.w3.org/2000/svg" xmlns:xlink="http://www.w3.org/1999/xlink" x="0px" y="0px"
	 width="1400px" height="1741.5px" viewBox="0 -761.5 1400 1741.5" enable-background="new 0 -761.5 1400 1741.5"
	 xml:space="preserve">
<g>
	<rect y="-761.5" fill="#9CDFFF" width="1400" height="1741.5"/>
	<path fill="#ACE4FF" d="M681.344,333.209c-54.121-169.365-112.76-43.432-112.76-43.432c-51.28-47.237-95.09,12.964-95.09,12.964
		c-8.568-29.02-21.32-10.563-21.32-10.563c-11.192-21.46-21.197-10.017-21.197-10.017c-10.896-36.306-32.215-29.051-32.215-29.051
		c-15.122-68.916-46.162-69.032-45.979-68.204c3.848-15.697-5.723-19.794-5.723-19.794c12.806-52.227-14.842-59.007-14.842-59.007
		c-9.51-209.754-114.697-204.38-114.697-204.38c-6.979-60.682-36.348-33.163-36.348-33.163
		c-5.932-39.774-23.082-20.156-23.082-20.156c-15.321-156.687-73.107-73.043-73.107-73.043
		c-22.645-58.647-51.281-10.001-51.281-10.001C22.701-271.911,10.813-287.846,0-292.826V73.112l195.787,858.972l613.582-428.628
		C781.588,325.157,681.344,333.209,681.344,333.209z"/>
	<path fill="#CAEEFF" d="M383.526-422.085C484.283-460.926,1140.934-676.277,1400-761.006v-0.494h-139.082L162.86-414.977
		c0,0-184.625,48.833-53.026,94.229c131.599,45.397,674.043,91.649,257.063,219.59C155.645-36.339,51.422-4.363,0,11.416v14.846
		l8.61-0.09c0,0,794.25-96.404,794.25-267c0-67.528-246.665-90.039-439.999-112.547
		C291.526-353.374,257.526-373.513,383.526-422.085z"/>
	<path fill="#CAEFFC" d="M344.038,288.513C364.409,97.559,260,109.25,260,109.25c0-30.21-20-17.771-20-17.771
		C209.5-65.789,129-2.704,129-2.704c0-49.757-32-28.433-32-28.433c-21.986-109.4-71.902-100.44-97-87.85v509.68
		c101.789,11.28,416.943,42.984,467.521,9.245C527.996,359.599,344.038,288.513,344.038,288.513z"/>
	<path fill="#CAEEFF" d="M1400-661.275c-103.543-19.286-136,149.45-136,149.45c-108.5,27.544-64,170.596-64,170.596
		c-43.5,67.528-28,162.006-28,162.006c-18.332,3.554-13.334,31.397-13.334,31.397c-15.334,10.662-13,31.393-13,31.393
		c-23,4.737-27,42.649-27,42.649c-41.625-0.201-53.041,51.09-52.541,51.09c-6.813-12.106-12.459,2.221-12.459,2.221
		c-22.668-40.28-36.334,2.96-36.334,2.96c-113.332-61.011-149,114.918-149,114.918c-34.334-10.662-30.666,47.98-30.666,47.98
		c-23-4.739-19,30.801-19,30.801c-87.666-31.986-65,94.184-65,94.184c-39,15.993-24,81.152-24,81.152
		c-67.333,13.033-45.999,101.883-45.999,101.883L690,523.301l710-12.989V-661.275z"/>
	<path fill="#AEE5FF" d="M1400-354.89c-28.369,4.158-24.668,61.345-24.668,61.345c-150.666,18.954-173.666,245.822-173.666,245.822
		c-75.334-34.947-81,71.675-81,71.675c-128.5,0-138.668,162.894-138.668,162.894c-70.666-11.254-65.697,82.282-65.697,82.282
		c-22.365,0-21.621,38.42-21.621,38.42c-91.496-10.662-104.996,154.596-104.996,154.596l-7.504,87.957H1400V-354.89z"/>
	<path fill="#FFFFFB" d="M516.65,291.931l293.073-45.016l-63.643,2.763c0,0-16.185-18.513-34.445-4.713
		c0,0-23.094-15.835-49.045,2.949c0,0-17.354-3.282-29.899,15.83c0,0-10.196-3.813-16.38,5.604c0,0-20.171-14.029-34.189,3.773
		c0,0-11.872-8.262-16.201,5.432c0,0-6.468-4.911-9.958,2.459L516.65,291.931z"/>
	<path fill="#FFFFFB" d="M372.749-375.882l856.999-250.563l-187,33.764c0,0-50-47.98-102,0c0,0-70-37.318-144,28.433
		c0,0-51.5-2.666-86,58.642c0,0-30.499-7.108-47.499,23.102c0,0-61.167-33.172-100.167,24.879c0,0-36-19.547-47,22.51
		c0,0-19.667-11.848-29,11.254L372.749-375.882z"/>
	<path fill="#FFFFFB" d="M94.125,44.43L387.201-0.583l-63.646,2.759c0,0-16.184-18.513-34.445-4.713c0,0-23.093-15.837-49.045,2.949
		c0,0-17.353-3.28-29.9,15.828c0,0-10.195-3.809-16.379,5.609c0,0-20.17-14.032-34.189,3.773c0,0-11.872-8.266-16.201,5.428
		c0,0-6.469-4.909-9.959,2.461L94.125,44.43z"/>
	<path fill="#FFFFFB" d="M161.176-511.136l293.076-45.013l-63.645,2.759c0,0-16.185-18.513-34.445-4.712
		c0,0-23.093-15.837-49.045,2.948c0,0-17.353-3.281-29.9,15.828c0,0-10.195-3.808-16.379,5.609c0,0-20.17-14.032-34.189,3.772
		c0,0-11.872-8.266-16.201,5.429c0,0-6.469-4.91-9.959,2.461L161.176-511.136z"/>
	<path fill="#FFFFFB" d="M26.386-545.929l293.076-45.013l-63.645,2.76c0,0-16.184-18.513-34.445-4.713
		c0,0-23.093-15.837-49.045,2.948c0,0-17.353-3.281-29.9,15.828c0,0-10.195-3.808-16.379,5.609c0,0-20.17-14.031-34.189,3.772
		c0,0-11.872-8.265-16.201,5.429c0,0-6.469-4.91-9.959,2.461L26.386-545.929z"/>
	<g>
		<path fill="#FFA585" d="M664-203.509C631.121-162.985,553-93.333,553-93.333L457.103,37.445l-80.045,125.501l-206.05,119.392
			h-15.584l-14.891,12.922l-18.354-8.002L0,367.1v560.786h1095.639V-74.923L747.604-265.37
			C747.604-265.37,677.848-220.576,664-203.509z"/>
		<path fill="#E86F58" d="M685.961-96.748L583.455,78.023l-108.74,38.156L337.58,276.181c0,0-38.786,27.079-69.261,27.079
			c-30.474,0-72.794,19.228-72.794,19.228L0,433.935v493.951h1095.639V-74.923L865.766-200.71L685.961-96.748z"/>
		<path fill="#FFA585" d="M514.888,270.027l-5.542-9.846c0,0-61.642,80.001-65.104,73.85c-3.464-6.154-74.109,17.23-74.109,17.23
			L210.14,423.876l70.646-87.386L0,474.05v47.296l447.013-34.699l71.338-84.925l-29.78,88.616l19.392,13.538l178.001-237.54
			l-38.787,132.926l122.592-205.545h-67.183l68.568-94.77l-73.417-8.616L814.787-88.135L514.888,270.027z"/>
		<polygon fill="#843628" points="897.899,-163.212 919.369,-141.057 836.949,-148.442 862.576,-75.825 854.266,-45.056 
			833.487,-45.056 780.155,26.33 813.4,36.176 796.432,66.33 908.289,44.792 942.919,129.717 895.821,201.101 853.572,329.105 
			828.15,338.441 746.91,517.418 1095.639,640.839 1095.639,-74.923 934.293,-163.212 		"/>
		<polygon fill="#FFA585" points="458.786,158.025 481.296,144.487 501.381,140.178 497.052,147.871 536.012,147.871 
			583.802,114.947 478.179,129.101 		"/>
		<polygon fill="#FFA585" points="609.428,60.794 667.953,15.254 661.2,3.252 707.777,-73.979 691.848,-67.825 693.58,-82.594 
			630.898,15.254 634.188,21.103 		"/>
		<polygon fill="#CC5E4A" points="514.88,412.052 723.96,93.408 518.351,401.723 		"/>
		<polygon fill="#CC5E4A" points="329.268,485.415 438.007,359.874 388.14,432.493 397.144,432.493 363.199,475.754 		"/>
		<path fill="#FFA585" d="M1065-168.562c0,0-54,35.541-70,30.801c-16-4.739-82.667,54.497-82.667,54.497l-160.666,191.92
			l-43.334,135.055L510,358.629h-15l-14.333,12.439L463,363.367L308,464.658l-68-15.993L95,539.294l-39.877,28.569L0,588.919V980
			h1400V14.751L1065-168.562z"/>
		<path fill="#E86F58" d="M1005.667-6.258L907,161.969l-104.667,36.726l-132,154.009c0,0-37.333,26.064-66.667,26.064
			S533.6,397.276,533.6,397.276L295.11,533.213C260.358,525.492,92.723,632.351,0,691.918V980h1400V14.751l-221.264-121.077
			L1005.667-6.258z"/>
		<path fill="#FFA585" d="M234.977,597.258l380.69-186.502l-68,84.113l154-69.896c0,0,67.999-22.51,71.333-16.587
			s62.667-71.082,62.667-71.082l5.334,9.479L1129.668,2.036l-112.667,171.781l70.667,8.293l-66,91.221h64.666l-118,197.845
			l37.334-127.947L834.334,571.872l-18.666-13.03l28.666-85.298l-68.666,81.744L234.977,597.258z"/>
		<polygon fill="#843628" points="1209.667,-70.231 1230.333,-48.907 1151,-56.015 1175.667,13.881 1167.667,43.5 1147.667,43.5 
			1096.333,112.212 1128.333,121.689 1112,150.714 1219.667,129.983 1253,211.727 1207.667,280.438 1167,403.647 1142.53,412.633 
			1064.333,584.905 1400,703.705 1400,14.751 1244.697,-70.231 		"/>
		<polygon fill="#FFA585" points="787,238.974 808.667,225.943 828,221.795 823.833,229.2 861.334,229.2 907.334,197.51 
			805.667,211.133 		"/>
		<polygon fill="#FFA585" points="932,145.384 988.333,101.55 981.833,89.999 1026.666,15.659 1011.333,21.583 1013,7.367 
			952.666,101.55 955.833,107.178 		"/>
		<polygon fill="#CC5E4A" points="840.993,483.484 1042.242,176.777 844.334,473.543 		"/>
		<polygon fill="#CC5E4A" points="947.532,656.823 1219.333,144.447 951.613,641.111 		"/>
		<polygon fill="#843628" points="1201.449,129.242 1004.547,444.73 1195.475,133.859 		"/>
		<polygon fill="#CC5E4A" points="662.333,554.102 767,433.263 719,503.161 727.667,503.161 694.993,544.804 		"/>
		<polygon fill="#CC5E4A" points="201,494.868 266,484.206 336,406.016 369,397.131 345,422.009 271,509.084 140,576.611 
			201,519.746 		"/>
	</g>
	<ellipse opacity="0.45" fill="#843628" enable-background="new    " cx="463" cy="771.198" rx="77" ry="23.99"/>
	<ellipse opacity="0.45" fill="#843628" enable-background="new    " cx="931" cy="771.198" rx="77" ry="23.99"/>
	<ellipse fill="#843628" cx="729.363" cy="719.258" rx="357.351" ry="61.262"/>
	<g>
		<path fill="#843628" d="M859.532,900.499c46.107-2.714,83.812,12.621,84.215,34.251c0.402,21.631-36.647,41.363-82.755,44.078
			c-46.107,2.712-83.811-12.622-84.214-34.252S813.426,903.212,859.532,900.499z"/>
		<path fill="#A04433" d="M933.614,916.867c-14.264-11.542-42.167-18.333-74.116-16.453c-46.009,2.704-82.993,22.364-82.745,43.941
			c14.265,11.541,42.166,18.331,74.114,16.452C896.878,958.101,933.861,938.443,933.614,916.867z"/>
		<path fill="#CC5E4A" d="M906.652,911.525c0.513,10.319-25.09,22.746-57.184,27.753c-32.091,5.015-58.517,0.715-59.027-9.604
			c-0.511-10.319,25.091-22.742,57.182-27.755C879.716,896.908,906.143,901.207,906.652,911.525z"/>
		<path fill="#D86D5A" d="M848.248,902.861c14.342-2.241,26.153-0.319,26.382,4.289c0.228,4.609-11.214,10.165-25.556,12.405
			s-26.152,0.32-26.381-4.29C822.466,910.656,833.907,905.104,848.248,902.861z"/>
	</g>
	<g>
		<path fill="#843628" d="M174.312,613.14c20.719-0.32,37.555,7.3,37.602,17.02c0.048,9.722-16.71,17.86-37.43,18.18
			c-20.72,0.321-37.555-7.299-37.602-17.019C136.834,621.6,153.592,613.461,174.312,613.14z"/>
		<path fill="#A04433" d="M207.448,621.937c-6.333-5.461-18.82-9.054-33.178-8.833c-20.675,0.315-37.403,8.42-37.425,18.114
			c6.333,5.459,18.82,9.055,33.177,8.835C190.698,639.734,207.425,631.631,207.448,621.937z"/>
		<path fill="#CC5E4A" d="M168.957,613.532c14.44-1.624,26.281,0.821,26.446,5.463c0.165,4.643-11.407,9.722-25.847,11.346
			c-14.44,1.626-26.281-0.818-26.446-5.461S154.517,615.158,168.957,613.532z"/>
		<path fill="#D86D5A" d="M169.145,613.977c6.453-0.726,11.744,0.369,11.818,2.443c0.074,2.075-5.098,4.344-11.551,5.069
			s-11.745-0.368-11.818-2.443C157.52,616.972,162.691,614.702,169.145,613.977z"/>
	</g>
	<path fill="#843628" d="M811.633,734.769l83.526-88.661c0,0,11.212-15.606,3.924,6.975c-7.287,22.579-23.729,90.32-23.729,90.32
		l104.642-114.228c0,0,22.423-31.213,8.97,5.977c-13.455,37.189-29.898,86.997-29.898,86.997s2.99,33.209,36.625-26.563
		s167.986-243.729,167.986-243.729l-155.279,183.295l46.527-110.577l-135.66,135.48l29.149-92.644L811.633,734.769z"/>
	<g>
		<path fill="#843628" d="M1396.743,810.222c0.768,41.189-69.782,78.764-157.579,83.929
			c-87.796,5.166-159.592-24.032-160.357-65.218c-0.768-41.191,69.783-78.767,157.577-83.931
			C1324.181,739.838,1395.975,769.032,1396.743,810.222z"/>
		<path fill="#A04433" d="M1377.52,776.333c-27.162-21.979-80.295-34.909-141.137-31.331
			c-87.612,5.15-158.041,42.587-157.569,83.674c27.163,21.979,80.296,34.909,141.135,31.33
			C1307.563,854.853,1377.991,817.422,1377.52,776.333z"/>
		<path fill="#CC5E4A" d="M1326.178,766.163c0.979,19.648-47.777,43.311-108.891,52.85c-61.109,9.548-111.431,1.364-112.405-18.291
			c-0.974-19.647,47.78-43.307,108.891-52.853C1274.885,738.328,1325.207,746.514,1326.178,766.163z"/>
		<path fill="#D86D5A" d="M1265.081,757.788c0.437,8.781-21.354,19.358-48.665,23.621c-27.311,4.267-49.801,0.608-50.234-8.174
			c-0.436-8.781,21.353-19.355,48.662-23.624C1242.157,745.346,1264.648,749.007,1265.081,757.788z"/>
	</g>
	<path fill="#843628" d="M545.196,612.536c17.09-28.674,37.444-39.684,45.464-24.591c8.019,15.093,0.665,50.571-16.425,79.245
		s-37.444,39.684-45.463,24.591C520.753,676.688,528.106,641.208,545.196,612.536z"/>
	<path fill="#843628" d="M615.13,529.789c8.321-13.959,18.231-19.32,22.137-11.971s0.325,24.625-7.996,38.587
		c-8.321,13.959-18.231,19.319-22.137,11.971C603.229,561.026,606.81,543.75,615.13,529.789z"/>
	<path fill="#A04433" d="M512.079,651.573c21.977,14.809,36.071,44.251,31.481,65.765c-4.59,21.512-26.127,26.949-48.103,12.143
		c-21.977-14.807-36.071-44.251-31.481-65.763C468.566,642.204,490.104,636.768,512.079,651.573z"/>
	<path fill="#A04433" d="M360.728,619.707c21.977,14.808,36.07,44.25,31.48,65.764c-4.59,21.513-26.126,26.949-48.103,12.143
		c-21.977-14.806-36.07-44.25-31.48-65.763C317.215,610.337,338.751,604.9,360.728,619.707z"/>
	<path fill="#A04433" d="M254.397,580.82c9.309,6.271,15.278,18.742,13.334,27.854s-11.066,11.415-20.374,5.144
		c-9.309-6.27-15.278-18.74-13.334-27.853C235.967,576.853,245.089,574.55,254.397,580.82z"/>
	<path fill="#843628" d="M1072.188,429.581c0,0,62.784-16.936-33.073,163.374C1039.114,592.952,1184.305,346.898,1072.188,429.581z"
		/>
	<path fill="#843628" d="M1141.774,342.471c0,0,35.389-9.544-18.643,92.085C1123.133,434.56,1204.969,295.867,1141.774,342.471z"/>
	<ellipse fill="#FFFFFB" cx="227.742" cy="-573.577" rx="42.751" ry="52.868"/>
</g>
<g>
	<g>
		<path fill="#292929" d="M348.157,748.881v-10.292H306c-41.873,0-75.711,34.684-75.711,77.404c0,42.72,33.979,77.403,75.711,77.403
			h42.157v-10.292c22.699-13.395,37.927-38.35,37.927-66.971C385.943,787.371,370.716,762.275,348.157,748.881z"/>
		<ellipse fill="#333333" cx="348.157" cy="815.993" rx="75.712" ry="77.404"/>
		<ellipse fill="#292929" cx="348.157" cy="815.993" rx="42.015" ry="43.002"/>
	</g>
	<path fill="#FFFFFF" d="M448.543,872.671l72.046-91.362l-112.228,85.3l50.334-59.639l-80.225,64.291l27.071-42.155l-69.228,64.15
		l149.45,0.141C541.597,893.256,545.544,795.973,448.543,872.671z"/>
	<path fill="#2B1A19" d="M1116.418,829.105h-973.12c-6.768,0-12.408,5.64-12.408,12.406v3.243c0,6.767,5.64,12.406,12.408,12.406
		h973.12c6.768,0,12.406-5.64,12.406-12.406v-3.243C1128.824,834.604,1123.186,829.105,1116.418,829.105z"/>
	<path fill="#292929" d="M1004.471,748.881v-10.292h-42.158c-41.873,0-75.711,34.684-75.711,77.404
		c0,42.72,33.979,77.403,75.711,77.403h42.158v-10.292c22.699-13.395,37.926-38.35,37.926-66.971
		C1042.396,787.371,1027.17,762.275,1004.471,748.881z"/>
	<g>
		<path fill="#292929" d="M761.684,748.881v-10.292h-42.156c-41.874,0-75.712,34.684-75.712,77.404
			c0,42.72,33.979,77.403,75.712,77.403h42.156v-10.292c22.701-13.395,37.928-38.35,37.928-66.971
			C799.469,787.371,784.242,762.275,761.684,748.881z"/>
		<ellipse fill="#333333" cx="761.684" cy="815.993" rx="75.713" ry="77.404"/>
		<ellipse fill="#292929" cx="761.684" cy="815.993" rx="42.016" ry="43.002"/>
	</g>
	<path fill="#EA5A52" d="M814.414,499.047H567.68c-86.569,0-176.098,82.197-253.643,119.56
		c-101.654,49.064-165.664,54.281-160.588,171.021c1.411,30.453,24.955,55.409,55.41,55.409h658.428
		c30.453,0,55.408-24.956,55.408-55.409V644.689C923.4,604.508,859.391,499.047,814.414,499.047z"/>
	<path fill="#F0736C" d="M314.038,618.606c-101.654,49.064-165.664,54.281-160.588,171.021c1.411,30.453,24.955,55.409,55.41,55.409
		h73.598c-30.455,0-54.141-24.956-55.411-55.409c-5.215-116.882,58.935-121.957,160.589-171.021
		c77.545-37.362,167.074-119.56,253.643-119.56H567.68C481.111,499.047,391.583,581.244,314.038,618.606z"/>
	<path fill="#C94D46" d="M1115.713,753.11l-0.424-80.082c0-41.17-123.932-173.981-168.344-173.981H683.433l-59.074,119.982
		l-169.613,70.495c-30.031,12.548-43.565,39.336-40.888,100.104c1.41,30.453,24.956,55.409,55.411,55.409h590.893
		c2.254,0,4.369-0.141,6.484-0.423h44.977c7.895,0,14.521-6.486,14.521-14.521v-63.306
		C1126.287,760.442,1121.775,754.803,1115.713,753.11z"/>
	<path fill="#2B1A19" d="M911.699,516.951h-58.23l18.33,101.655h160.023C998.689,573.207,938.346,516.951,911.699,516.951z"/>
	<polygon fill="#2B1A19" points="674.412,516.951 624.499,618.606 857.84,618.606 839.65,516.951 	"/>
	<path fill="#EA5A52" d="M747.303,468.169h-142.12c-6.485,0-13.252,4.935-15.086,10.855l-6.203,20.022h238.838
		C817.375,488.473,762.811,468.169,747.303,468.169z"/>
	<path fill="#2B1A19" d="M684.281,474.09h-75.713c-3.807,0-7.754,3.104-8.882,6.769l-2.257,7.33
		c-1.127,3.809,0.987,6.769,4.652,6.769h75.713c3.807,0,7.754-3.102,8.881-6.769l2.258-7.33
		C690.06,477.193,687.945,474.09,684.281,474.09z"/>
	<path fill="#2B1A19" d="M314.038,618.606h296.785l47.374-101.655H491.403C429.792,543.316,368.883,592.099,314.038,618.606z"/>
	<path fill="#2B1A19" d="M367.051,645.395h-75.712c-3.807,0-6.627,2.678-8.882,5.075l-5.077,5.499
		c-2.255,2.396,0.987,5.075,4.652,5.075h84.876c3.807,0,10.716-2.537,8.882-5.075C374.1,653.43,373.958,645.395,367.051,645.395z"/>
	<path fill="#B5443E" d="M1021.389,752.548H1094l-0.283-51.744c0-11.984-6.627-17.201-22.699-39.195H623.512
		c-17.624,18.61-35.388,22.981-58.934,45.398c-23.545,22.559-77.404,21.995-74.725,82.762c1.41,30.454,24.956,55.409,55.409,55.409
		h493.328c2.256,0,4.371-0.141,6.486-0.423h-23.688c-7.895,0-14.521-6.485-14.521-14.521v-63.306
		C1006.867,759.032,1013.494,752.548,1021.389,752.548z"/>
	<path fill="#45302F" d="M314.038,618.606h58.793c54.281-28.058,113.638-73.739,173.841-101.655h-55.269
		C429.792,543.316,368.883,592.099,314.038,618.606z"/>
	<g>
		<ellipse fill="#333333" cx="1004.471" cy="815.993" rx="75.711" ry="77.404"/>
		<g>
			<ellipse fill="#808080" cx="1004.471" cy="815.993" rx="61.189" ry="62.459"/>
			<ellipse fill="#666666" cx="1004.471" cy="815.993" rx="43.002" ry="43.848"/>
			<path fill="#4D4D4D" d="M988.82,775.106c-15.934,6.345-27.352,22.276-27.352,40.887s11.279,34.543,27.352,40.888
				c15.932-6.345,27.352-22.277,27.352-40.888C1016.031,797.383,1004.752,781.451,988.82,775.106z"/>
		</g>
	</g>
	<path fill="#2B1A19" d="M934.398,829.105H648.468c-1.975,0-3.666,5.64-3.666,12.406v3.243c0,6.767,1.691,12.406,3.666,12.406
		h285.931c1.973,0,3.666-5.64,3.666-12.406v-3.243C937.922,834.604,936.371,829.105,934.398,829.105z"/>
	<polygon fill="#C94D46" points="859.814,825.862 651.005,825.862 651.005,845.178 895.625,845.178 895.625,800.202 
		879.693,800.202 	"/>
	<path fill="#292929" d="M590.944,748.881v-10.292h-42.157c-41.875,0-75.712,34.684-75.712,77.404
		c0,42.72,33.979,77.403,75.712,77.403h42.157v-10.292c22.699-13.395,37.926-38.35,37.926-66.971
		C628.87,787.371,613.643,762.275,590.944,748.881z"/>
	<path fill="#C94D46" d="M1076.516,845.178c2.396-9.306,3.666-19.175,3.666-29.326c0,10.292-1.973,20.304-5.639,29.326H1076.516z"/>
	<path fill="#C94D46" d="M1080.182,815.993c0-1.27,0-2.679-0.141-3.948C1080.182,813.314,1080.182,814.584,1080.182,815.993z"/>
	<path fill="#C94D46" d="M967.531,700.944c-62.178,0-112.652,51.462-112.652,115.049c0,10.15,1.27,19.879,3.666,29.326h70.072
		v-29.326c0-42.721,33.979-77.404,75.713-77.404c40.463,0,73.596,32.568,75.711,73.315
		C1078.068,750.291,1028.439,700.944,967.531,700.944z"/>
	<path fill="#EA5A52" d="M855.02,815.993c0,10.15,1.27,19.879,3.666,29.326h42.156c-2.396-9.307-3.664-19.176-3.664-29.326
		c0-56.115,39.477-102.923,91.502-112.935c-6.768-1.268-13.959-1.973-21.148-1.973C905.354,700.944,855.02,752.406,855.02,815.993z"
		/>
	<path fill="#CCCCCC" d="M209.141,703.764l-34.685-5.357c-6.767,9.024-11.984,19.457-15.509,32.006
		c3.102,0.705,6.345,1.127,9.446,1.127h46.81c7.895,0,12.407-9.023,9.446-14.239C220.843,710.673,216.191,704.751,209.141,703.764z"
		/>
	<path fill="#CCCCCC" d="M419.78,694.177l-61.894,9.587c-7.191,1.128-11.703,7.05-15.509,13.536
		c-2.962,5.216,1.55,14.239,9.445,14.239h46.809c14.241,0,30.877-8.036,33.697-17.059l2.538-8.46
		C436.841,699.252,433.034,692.063,419.78,694.177z"/>
	<path fill="#C94D46" d="M583.612,700.944c-2.397,0-4.794,0.142-7.19,0.282c-3.667,1.832-7.614,3.665-11.703,5.78
		c-23.827,11.844-60.344,19.033-71.481,54.281c13.675-13.957,32.709-22.699,53.577-22.699c41.873,0,75.711,34.684,75.711,77.404
		v29.326h70.072c2.398-9.307,3.668-19.176,3.668-29.326C696.265,752.406,645.788,700.944,583.612,700.944z"/>
	<ellipse fill="#333333" cx="590.944" cy="815.993" rx="75.712" ry="77.404"/>
	<g>
		<ellipse fill="#808080" cx="590.944" cy="815.993" rx="61.189" ry="62.459"/>
		<ellipse fill="#666666" cx="590.944" cy="815.993" rx="43.002" ry="43.848"/>
		<path fill="#4D4D4D" d="M575.293,775.106c-15.932,6.345-27.352,22.276-27.352,40.887s11.279,34.543,27.352,40.888
			c15.933-6.345,27.353-22.277,27.353-40.888S591.226,781.451,575.293,775.106z"/>
	</g>
	<path fill="#2B1A19" d="M521.858,829.105H135.684c-2.679,0-4.935,5.64-4.935,12.406v3.243c0,6.767,2.256,12.406,4.935,12.406
		h386.032c2.68,0,4.935-5.64,4.935-12.406v-3.243C526.793,834.604,524.536,829.105,521.858,829.105z"/>
	<path fill="#C94D46" d="M666.656,815.993c0-1.27,0-2.679-0.141-3.948C666.656,813.314,666.656,814.584,666.656,815.993z"/>
	<path fill="#C94D46" d="M662.99,845.178c2.396-9.306,3.666-19.175,3.666-29.326c0,10.292-1.975,20.304-5.639,29.326H662.99z"/>
	<path fill="#C94D46" d="M554.145,700.944c-62.177,0-112.651,51.462-112.651,115.049c0,10.15,1.268,19.879,3.665,29.326h70.073
		v-29.326c0-42.721,33.978-77.404,75.712-77.404c40.464,0,73.597,32.568,75.712,73.315
		C664.541,750.291,614.912,700.944,554.145,700.944z"/>
	<path fill="#EA5A52" d="M463.347,758.328c-3.384-12.125-10.997-22.841-24.391-22.841H171.074
		c-13.394,0-22.277,10.434-24.392,22.841l-10.857,64.01c-2.115,12.407,10.998,22.84,24.392,22.84h296.926
		c13.394,0,27.775-10.715,24.391-22.84L463.347,758.328z"/>
	<path fill="#C94D46" d="M472.37,735.487h-33.414c-11.279,0-18.753,10.434-20.585,22.98l-9.165,64.011
		c-1.833,12.407,9.306,22.841,20.585,22.841h41.733c11.279,0,20.443-10.292,20.584-22.841l0.847-64.011
		C493.096,745.779,483.649,735.487,472.37,735.487z"/>
	<path fill="#2B1A19" d="M136.813,815.288h11.561c-0.141-0.987-0.141-1.834,0.141-2.819l7.05-41.452
		c0.14-0.987,0.422-1.975,0.705-2.819h-11.421L136.813,815.288z"/>
	<path fill="#2B1A19" d="M361.27,777.926c-0.846-5.358-4.653-9.869-10.433-9.869h-35.39c0.282,0.985,0.564,1.833,0.705,2.819
		l7.049,41.451c0.142,0.987,0.142,1.974,0.142,2.819h32.146c5.78,0,11.419-4.512,10.433-9.869L361.27,777.926z"/>
	<path fill="#2B1A19" d="M309.245,777.926c-0.847-5.358-4.654-9.869-10.434-9.869h-61.471h-61.473c-5.78,0-9.587,4.511-10.433,9.869
		l-4.654,27.493c-0.845,5.357,4.654,9.869,10.434,9.869h66.125h66.124c5.781,0,11.421-4.512,10.434-9.869L309.245,777.926z"/>
	<path fill="#EA5A52" d="M1058.752,643.28H623.794c-9.024,0-16.496,7.472-16.496,16.494c0,9.024,7.472,16.496,16.496,16.496h435.098
		c9.023,0,16.496-7.472,16.496-16.496C1075.389,650.752,1067.916,643.28,1058.752,643.28z"/>
	<path fill="#EA5A52" d="M441.494,815.993c0,10.15,1.268,19.879,3.665,29.326h42.157c-2.397-9.307-3.667-19.176-3.667-29.326
		c0-56.115,39.478-102.923,91.503-112.935c-6.909-1.268-13.958-1.973-21.148-1.973C491.828,700.944,441.494,752.406,441.494,815.993
		z"/>
	<path fill="#FFFFFF" d="M692.035,870.838l78.391-99.539l-122.24,92.912l54.846-64.996l-87.414,70.073l29.466-45.964l-75.43,69.79
		l162.845,0.142C793.406,893.256,797.637,787.23,692.035,870.838z"/>
	<path fill="#C94D46" d="M1128.682,553.469h-123.646c-3.807,0-7.051,3.102-7.051,7.049c0,3.808,3.102,7.05,7.051,7.05h123.646
		c3.809,0,7.051-3.102,7.051-7.05C1135.732,556.711,1132.631,553.469,1128.682,553.469z"/>
	<path fill="#C94D46" d="M1237.246,579.975h-202.463c-3.807,0-7.049,3.102-7.049,7.05c0,3.807,3.102,7.049,7.049,7.049h202.463
		c3.807,0,7.049-3.102,7.049-7.049C1244.295,583.076,1241.053,579.975,1237.246,579.975z"/>
	<path fill="#C94D46" d="M1208.625,628.052H1065.66c-3.807,0-7.049,3.102-7.049,7.05c0,3.807,3.1,7.049,7.049,7.049h142.965
		c3.807,0,7.049-3.101,7.049-7.049C1215.533,631.296,1212.432,628.052,1208.625,628.052z"/>
	<path fill="#C94D46" d="M1262.201,628.052h-21.713c-3.807,0-7.049,3.102-7.049,7.05c0,3.807,3.102,7.049,7.049,7.049h21.713
		c3.807,0,7.049-3.101,7.049-7.049C1269.25,631.296,1266.148,628.052,1262.201,628.052z"/>
	<path fill="#2B1A19" d="M1088.783,604.647H945.818c-3.807,0-7.049,3.103-7.049,7.05c0,3.807,3.1,7.05,7.049,7.05h142.965
		c3.807,0,7.049-3.103,7.049-7.05S1092.59,604.647,1088.783,604.647z"/>
	<path fill="#EA5A52" d="M1174.646,662.313H945.818c-3.807,0-7.049,3.101-7.049,7.05c0,3.806,3.1,7.05,7.049,7.05h228.828
		c3.807,0,7.049-3.103,7.049-7.05C1181.695,665.556,1178.594,662.313,1174.646,662.313z"/>
	<path fill="#EA5A52" d="M769.297,701.227H540.469c-3.807,0-7.049,3.102-7.049,7.05c0,3.807,3.101,7.049,7.049,7.049h228.828
		c3.809,0,7.051-3.102,7.051-7.049C776.348,704.328,773.246,701.227,769.297,701.227z"/>
	<path fill="#FFFFFF" d="M1158.855,863.788l102.922-130.557l-160.307,121.815l71.906-85.157l-114.625,91.926l38.771-60.203
		l-98.975,91.502l213.459,0.142C1291.668,893.256,1297.166,754.238,1158.855,863.788z"/>
</g>
</svg>
